<svg xmlns="http://www.w3.org/2000/svg" xmlns:xlink="http://www.w3.org/1999/xlink" width="367.566" height="159.228" xmlns:v="https://vecta.io/nano"><style><![CDATA[.B{stroke:#1e1e1e}.C{stroke-linecap:round}]]></style><defs><style>@font-face{src:url("https://excalidraw.com/Virgil.woff2")} @font-face{src:url("https://excalidraw.com/Cascadia.woff2")}</style><path id="A" d="M170.689 42.01a13.57 13.57 0 0 1-.23 2.46 13.53 13.53 0 0 1-.71 2.38 13.22 13.22 0 0 1-1.16 2.24 13.78 13.78 0 0 1-1.56 2.02 15.41 15.41 0 0 1-1.94 1.75c-.69.53-1.45 1.01-2.24 1.42-.78.41-1.62.76-2.47 1.04-.86.28-1.75.5-2.64.64a17.83 17.83 0 0 1-2.73.21c-.91 0-1.83-.07-2.72-.21-.9-.14-1.79-.36-2.64-.64s-1.69-.63-2.48-1.04-1.54-.89-2.24-1.42c-.69-.53-1.35-1.12-1.93-1.75a13.85 13.85 0 0 1-1.57-2.02c-.45-.71-.84-1.47-1.15-2.24a13.53 13.53 0 0 1-.71-2.38 12.74 12.74 0 0 1-.24-2.46c0-.82.08-1.66.24-2.46a13.38 13.38 0 0 1 .71-2.39c.31-.77.7-1.53 1.15-2.24s.99-1.39 1.57-2.02 1.24-1.22 1.93-1.75c.7-.52 1.45-1 2.24-1.41a16.92 16.92 0 0 1 2.48-1.05c.85-.28 1.74-.49 2.64-.63.89-.15 1.81-.22 2.72-.22s1.83.07 2.73.22a17.18 17.18 0 0 1 2.64.63 16.36 16.36 0 0 1 2.47 1.05 15.98 15.98 0 0 1 2.24 1.41 15.41 15.41 0 0 1 1.94 1.75c.58.63 1.11 1.31 1.56 2.02a13.22 13.22 0 0 1 1.16 2.24 13.38 13.38 0 0 1 .71 2.39c.15.8.19 2.05.23 2.46s.04-.41 0 0"/><path id="B" d="M287.225 37.795c0 .62-.06 1.24-.18 1.85s-.3 1.22-.53 1.8c-.24.57-.53 1.14-.87 1.68a10.68 10.68 0 0 1-1.18 1.52 10.74 10.74 0 0 1-1.46 1.31 11.67 11.67 0 0 1-1.68 1.07c-.59.31-1.22.57-1.87.79a13.29 13.29 0 0 1-1.98.48c-.67.1-1.37.16-2.05.16s-1.38-.06-2.05-.16c-.67-.11-1.34-.27-1.99-.48-.64-.22-1.27-.48-1.86-.79s-1.16-.67-1.69-1.07c-.52-.39-1.01-.84-1.45-1.31a10.68 10.68 0 0 1-1.18-1.52c-.34-.54-.63-1.11-.87-1.68-.23-.58-.41-1.19-.53-1.8s-.18-1.23-.18-1.85.06-1.24.18-1.85.3-1.22.53-1.8c.24-.58.53-1.15.87-1.68a10.68 10.68 0 0 1 1.18-1.52c.44-.47.93-.92 1.45-1.32a13.33 13.33 0 0 1 1.69-1.06 12.22 12.22 0 0 1 1.86-.79c.65-.21 1.32-.37 1.99-.48a12.78 12.78 0 0 1 2.05-.16 12.78 12.78 0 0 1 2.05.16 13.29 13.29 0 0 1 1.98.48 11.92 11.92 0 0 1 1.87.79c.59.31 1.16.67 1.68 1.06a11.52 11.52 0 0 1 1.46 1.32 10.68 10.68 0 0 1 1.18 1.52c.34.53.63 1.1.87 1.68.23.58.41 1.19.53 1.8s.15 1.54.18 1.85.03-.31 0 0"/></defs><path fill="#fff" d="M0 0h367.566v159.228H0z"/><g fill="none" class="B C"><path d="M10.359 16.919l71.79-2.3m-71.79 2.3l71.79-2.3m-.233 56.645l-.46-56.13m.46 56.13l-.46-56.13M11.804 72.836l70.34-1.21m-70.34 1.21l70.34-1.21M10 17.562l1.06 55.33M10 17.562l1.06 55.33m88.173-54.117l1.98 50.42m-1.98-50.42l1.98 50.42m-1.569-51.348l102.57-5.65m-102.57 5.65l102.57-5.65m-.228.387l.59 55.27m-.59-55.27l.59 55.27m-101.653 1.782l101.64-1.62m-101.64 1.62l101.64-1.62m12.063-53.607l4.41 52.44m-4.41-52.44l4.41 52.44m-4.642-53.136l24.13-1.62m-24.13 1.62l24.13-1.62m.003.46l7.89 51.98m-7.89-51.98l7.89 51.98m-26.918 2.782l26.69-2.78m-26.69 2.78l26.69-2.78m8.117-50.358l5.34 50.59m-5.34-50.59l5.34 50.59m.229.924l39.68-3.48m-39.68 3.48l39.68-3.48"/><path d="M298.394 62.442l-5.57-50.59m5.57 50.59l-5.57-50.59m-39.446 2.093l38.75-2.32m-38.75 2.32l38.75-2.32m18.333.695l5.34 54.3m-5.34-54.3l5.34 54.3m-5.34-55.924l41.54-.7m-41.54.7l41.54-.7m-.004.004l5.57 55.46M351.997 10l5.57 55.46m-.465-.001l-41.77 1.39m41.77-1.39l-41.77 1.39m-162.43 8.356l4.41 42.7m-4.41-42.7l4.41 42.7m-15.549-11.606l16.48 16.94m-16.48-16.94l16.48 16.94m16.935-19.956l-17.17 19.72m17.17-19.72l-17.17 19.72M277.51 66.851l5.8 48.03m-5.8-48.03l5.8 48.03m-16.01-10.902l16.71 15.08m-16.71-15.08l16.71 15.08"/><path d="M300.019 102.354l-16.71 16.48m16.71-16.48l-16.71 16.48m-159.181-.701l-.46 31.09m.46-31.09l-.46 31.09"/><path d="M123.432 148.532l79.13.23m-79.13-.23l79.13.23m-.235-.23l-2.55-38.52m2.55 38.52l-2.55-38.52m48.38 4.525l-.46 31.09m.46-31.09l-.46 31.09"/><path d="M247.46 144.935l79.13.23m-79.13-.23l79.13.23m-.234-.23l-2.55-38.52m2.55 38.52l-2.55-38.52"/></g><g fill="#1e1e1e"><path d="M9.996 47.328q0 0 .78-.63.78-.62 1.38-1.59.61-.97 1.41-2.23.81-1.27 1.5-2.27.69-1 1.4-1.93.71-.92.93-1.5.23-.58.46-.9.23-.32.53-.58.3-.25.65-.43.36-.18.75-.27.38-.08.78-.08.39.01.78.11.38.1.73.29.34.2.64.46.29.27.51.6.22.33.35.71.13.37.17.76.04.4-.01.79-.06.39-.21.76-.14.37.05 2.28.2 1.9.01 3.42-.19 1.52-.41 3.07-.22 1.53-.25 2.64-.03 1.11.02 2.39.06 1.29.55 2.55.5 1.27 2.21 1.46 1.72.18.38.64-1.34.47-1.06-1.04.27-1.51.64-2.97.36-1.46.99-3.22.62-1.76 1.19-3.17.57-1.42 1.11-2.86.55-1.45.96-3.25.42-1.81.45-2.87.03-1.06.02-1.22-.01-.17.05-.55.06-.39.2-.75.15-.37.38-.68.23-.32.53-.57.3-.25.65-.42.35-.18.74-.26.38-.08.77-.07.39.01.77.11.37.1.72.29.34.19.62.46.29.27.5.6.22.32.35.69.13.37.16.76.04.39.23 1.59.19 1.2.22 3.33.03 2.12.57 3.12.54 1 1.27 1.93.73.93-.45.27-1.18-.65-2.37-.29-1.18.35-.42-.79.76-1.14 1.54-2.05.77-.9 1.81-1.96 1.05-1.06 2.3-1.67 1.25-.61 2.41-.69 1.16-.08 3.19.42 2.03.51 3.48 1.58 1.44 1.08 2.25 1.81.81.73 1.63-.1.83-.83 1.93-1.48 1.11-.65 2.79-1.31 1.68-.66 2.79-.93 1.11-.26 3.29.52 2.18.78 3.07 1.97.89 1.2 1.53.72.65-.48 1.22-.39.58.1 1.09.37.52.28.92.7.4.43.64.96.25.53.31 1.11.06.58-.07 1.15-.13.57-.43 1.07-.3.5-.75.88-.44.37-.99.59-.54.2-1.12.23-.59.03-1.15-.12-.56-.16-1.04-.48-.49-.33-.84-.8-.35-.47-.53-1.02-.19-.55-.19-1.14 0-.58.19-1.13.19-.56.55-1.02.35-.46.84-.79.48-.33 1.04-.48.57-.16 1.15-.12.58.03 1.12.25.55.22.99.6.44.38.74.88.3.5.43 1.07.12.57.05 1.15-.06.58-.31 1.11-.25.53-.65.95-.4.43-.92.7-.51.27-1.09.35-.58.09-.58.09 0 0-2.22-.18-2.23-.19-3.29-1.62-1.06-1.43-2.52-.96-1.45.47-2.85 1.29-1.4.82-2.68 1.36-1.27.54-3.23.92-1.95.39-3.2-.19-1.25-.59-2.06-1.37-.81-.79-1.95-1.58-1.14-.8-2.12-.3-.99.5-1.9 1.73-.92 1.21-1.84 2.5-.92 1.3-2 1.75-1.08.45-2.18.02-1.1-.43-1.9-1.21-.8-.78-1.63-1.72-.84-.93-1.35-1.87-.5-.93-.63-2.54-.13-1.61-.19-3.44-.06-1.82-.23-3.45-.16-1.63-.1-2.01.06-.39.2-.75.15-.36.38-.68.23-.32.53-.57.3-.25.65-.42.35-.18.74-.26.38-.08.77-.07.39.01.77.11.37.1.72.29.34.19.62.46.29.27.5.59.22.33.35.7.13.37.16.76.04.39-.08 1.54-.12 1.16-.44 2.64-.31 1.49-.59 2.7-.27 1.22-.66 2.81-.39 1.6-.76 2.94-.37 1.36-.68 2.52-.32 1.17-.8 2.86-.47 1.69-.73 3.19-.26 1.5-.64 2.66-.39 1.15-1.37 1.99-.98.83-2.99 1.26-2.02.43-3.21.35-1.19-.07-2.62-.69-1.42-.61-2.18-1.41-.76-.79-1.35-2.17-.59-1.37-1.06-2.96-.46-1.59-.53-2.87-.06-1.28-.02-2.54.04-1.25.22-2.77.18-1.52.49-3 .31-1.48.4-2.86.1-1.38.12-2.61.02-1.23.15-2.53.13-1.31.36-1.63.23-.32.53-.58.3-.25.65-.43.36-.18.75-.27.38-.08.78-.08.39.01.78.11.38.1.73.29.34.2.64.46.29.27.51.6.22.33.35.71.13.37.17.76.04.4-.01.79-.06.39-.2.76-.15.37-.25.58-.09.22-.87 1.28-.77 1.06-1.82 2.23-1.04 1.17-1.62 2.09-.58.92-1.38 1.96-.8 1.04-1.79 1.95-.99.93-1.81 1.5-.82.58-1.1.74-.27.16-.58.25-.31.09-.63.1-.31.02-.63-.05-.31-.06-.6-.2-.29-.14-.54-.34-.24-.2-.44-.46-.19-.26-.31-.55-.13-.3-.18-.61-.05-.32-.03-.63.03-.32.13-.62.1-.31.28-.58.17-.27.4-.49.23-.22.23-.22h0zm96.662-3.775q0 0 .82.71.81.72 1.83-.35 1.01-1.06 2.07-2.09 1.06-1.04 2.03-1.86.97-.82 2.36-1.71 1.39-.89 3.28-2.16 1.9-1.27 3.7-2.84 1.8-1.57 3.08-2.69 1.28-1.12 2.16-1.87.87-.75 1.08-1 .21-.25.45-.39.25-.15.53-.24.28-.08.57-.1.29-.01.57.04.29.06.55.18.26.12.49.3.23.18.4.41.18.23.3.49.12.27.17.55.05.29.03.58-.02.29-.11.56-.09.28-.24.52-.15.25-.36.46-.2.2-1.34 1.25-1.14 1.04-2.4 2.03-1.26.99-2.32 2.04-1.06 1.05-.39 2.13.67 1.07 1.14 2.6.46 1.53.72 3.01.26 1.48.51 2.72.26 1.25.43 2.76.17 1.52.23 2.62.07 1.1.11 2.64.05 1.54.04-.21 0-1.74.49-3.14.48-1.39 1.01-2.77.52-1.38 1.04-2.57.52-1.17 1.18-2.23.66-1.06 1.49-1.92.83-.86 2-2.01 1.17-1.14 1.41-2.29.23-1.14.32-1.34.09-.19.21-.57.11-.37.32-.7.2-.34.48-.62.27-.27.61-.47.33-.21.71-.32.37-.12.76-.14.39-.02.78.05.38.07.74.23.36.16.66.4.31.24.55.55.24.31.4.67.16.36.23.74.07.39.05.78-.02.39 1.2 2.09 1.22 1.7 1.49 2.87.27 1.16.68 3.16.4 1.98.79 3 .4 1.02 1.1.21.69-.82 1.43-2.26.74-1.43 1.94-2.83 1.21-1.4 2.92-2.16 1.71-.75 2.91-.88 1.21-.14 3.61.92 2.41 1.06 2.92 1.31.51.26.91.66.4.4.65.91.26.51.33 1.07.08.56-.03 1.11-.11.56-.39 1.06-.28.49-.7.87-.43.38-.95.6-.52.23-1.09.27-.56.05-1.12-.09-.55-.14-1.02-.45-.48-.3-.84-.75-.35-.44-.55-.97-.19-.54-.21-1.11-.01-.55.15-1.1.17-.54.5-1 .34-.46.8-.79.46-.33 1-.5.55-.17 1.12-.15.56.02 1.1.21.53.2.97.56.45.35.75.83.31.48.44 1.03.14.56.09 1.11-.05.57-.27 1.09-.23.52-.61.94-.38.43-.87.71-.5.27-1.06.38-.55.11-1.12.03-.56-.08-.56-.08 0 0-1.96-.89-1.95-.88-2.68-.1-.73.79-1.44 2.09-.71 1.29-1.66 2.26-.96.97-3.04 1.68-2.08.71-3.84.63-1.75-.08-2.79-.55-1.03-.47-1.85-1.6-.82-1.12-1.23-2.64-.41-1.51-.8-3.35-.39-1.83-.87-3.44-.48-1.61-1.23-2.85-.76-1.24-1.1-2.58-.33-1.33-.21-1.71.11-.37.32-.7.2-.34.48-.62.27-.27.61-.47.33-.21.71-.32.37-.12.76-.14.39-.02.78.05.38.07.74.23.36.16.66.4.31.24.55.55.24.31.4.67.16.36.23.74.07.39.05.78-.02.39-.15.61-.12.23-.59 1.82-.47 1.59-1.08 2.64-.61 1.05-1.93 2.32-1.31 1.25-2.13 2.13-.81.89-1.2 1.88-.4 1-.76 2.23-.37 1.24-1 3.84-.64 2.6-1.08 3.84-.43 1.24-1.3 2.22-.88.98-2.6 1.48-1.72.5-3.32.43-1.6-.08-2.59-.68-.99-.61-1.76-2.19-.77-1.58-.75-2.85.01-1.27.05-2.63.05-1.37.05-2.54 0-1.17-.21-2.52-.22-1.35-.31-2.63-.09-1.26-.3-2.42-.21-1.17-.6-2.49-.39-1.32-.59-2.83-.21-1.51.5-3.23.71-1.73 2.07-2.81 1.36-1.08 2.49-2 1.13-.92 2.45-2.03 1.33-1.12 1.57-1.26.25-.15.53-.24.28-.08.57-.1.29-.01.57.04.29.06.55.18.26.12.49.3.23.18.4.41.18.23.3.49.12.27.17.55.05.29.03.58-.02.28-.11.56-.09.28-.24.52-.15.25-.36.45-.2.21-1.29.96-1.09.75-2.27 1.8-1.17 1.05-2.95 3.02-1.77 1.97-3.59 3.68-1.82 1.72-3.62 3.14-1.8 1.43-3.09 2.59-1.29 1.17-2.54 2.23-1.25 1.07-2.62 1.73-1.36.66-2.53.55-1.17-.1-2.23-.94-1.04-.84-1.83-1.59-.78-.76-.99-1-.21-.24-.35-.53-.15-.28-.22-.6-.07-.31-.06-.62 0-.32.08-.63.09-.31.24-.59.15-.28.37-.52.22-.23.48-.41.27-.18.57-.29.3-.11.62-.14.31-.03.63.01.32.04.61.16.3.12.56.31.26.19.26.19h0z" fill-opacity=".3"/><path d="M166.16 42.487q0 0 1.53-.13 1.53-.13 3.16-.29 1.62-.17 3.35-.4 1.72-.23 3.59-.64 1.87-.41 3.14-.91 1.27-.51 2.66-1.09 1.4-.58 3.25-.49 1.84.09 2.7 1.15.86 1.05 2.01.89 1.14-.16 3.12-.42 1.98-.26 3.45-.51 1.47-.25 1.98-.27.52-.02 1.01.12.49.14.91.44.42.29.72.7.31.41.46.9.16.48.15.99 0 .52-.17 1-.17.48-.49.88-.31.4-.74.68-.43.28-.92.41-.5.13-1.01.1-.51-.04-.98-.23-.47-.2-.86-.53-.38-.33-.64-.77-.26-.44-.36-.94-.1-.51-.04-1.01.06-.51.28-.97.22-.46.58-.83.35-.37.81-.6.45-.23.96-.31.51-.08 1.01.01.5.09.95.34.45.24.8.62.34.37.55.84.21.47.26.98.05.51-.07 1.01-.12.49-.38.93-.27.43-.67.75-.39.32-.87.51-.48.18-.48.18 0 0-2.74.3-2.75.3-4.33.45-1.59.15-3.24.1-1.66-.06-2.68-.49-1.02-.44-1.18-1.73-.15-1.31-1.62-.97-1.47.33-2.93.8-1.46.48-3.5 1.09-2.04.63-3.85.96-1.81.33-3.49.55-1.68.22-3.22.35-1.53.14-1.8.13-.28-.01-.56-.09-.27-.07-.51-.21-.24-.14-.45-.34-.2-.19-.35-.43-.16-.23-.25-.5-.09-.26-.11-.54-.03-.27.02-.55.04-.28.15-.54.11-.26.28-.48.16-.23.38-.41.22-.18.47-.3.25-.12.53-.18.27-.06.27-.06h0zm48.3-.064q0 0 1-.93.99-.92 1.68-1.84.69-.91 1.4-2.03.71-1.12 1.37-2.44.67-1.32 1.29-2.73.61-1.4.99-2.53.38-1.12.96-2.18.59-1.06 2.56-1.41 1.98-.35 3.23.45 1.24.81 2.1 2.4.86 1.6 1.13 2.95.26 1.34.57 3.29.31 1.95.89 2.95.58 1 1.67 3.23 1.08 2.23 1.96 3.97.87 1.75 1.79 3.09.91 1.34 1.66 2.2.75.86 1.43 1.59.68.72.87 1 .18.28.3.59.11.31.15.65.04.33-.01.66-.04.33-.16.64-.13.31-.32.59-.19.27-.44.49-.26.22-.55.37-.3.15-.63.23-.32.07-.66.07-.33-.01-.65-.09-.33-.08-.62-.24-.3-.16-.54-.38-.25-.23-.66-1.3-.41-1.08-.56-2.29-.15-1.21-.45-3.03-.3-1.81-.42-2.93-.13-1.13.21-2.74.34-1.61 4.31-3.32 3.96-1.72 4.32-1.36.36.37.59.83.22.47.28.98.07.51-.03 1.01-.11.5-.36.95-.26.44-.65.77-.38.34-.86.54-.47.2-.98.23-.52.04-1.01-.09-.5-.13-.93-.41-.43-.28-.75-.68-.32-.4-.49-.88-.17-.49-.18-1-.01-.52.15-1.01.15-.48.46-.9.3-.41.72-.71.42-.29.92-.44.49-.15 1-.13.52.02 1 .21.48.18.87.5.4.33.67.77.28.43.39.93.12.5.08 1.01-.05.52-.26.99-.21.47-.55.83-.35.38-.8.63-.45.25-.96.34-.5.09-1.01.02-.51-.08-.97-.31-.46-.23-.46-.23 0 0 .59 1.18.58 1.18.61 2.32.04 1.15.07 3.01.04 1.85.23 2.13.18.28.3.59.11.31.15.65.04.33-.01.66-.04.33-.16.64-.13.31-.32.59-.19.27-.44.49-.26.22-.55.37-.3.15-.63.23-.32.07-.66.07-.33-.01-.65-.09-.33-.08-.62-.24-.3-.16-.54-.38-.25-.23-.84-1.08-.59-.85-1.4-1.84-.81-.99-2-2.44-1.18-1.44-2.43-3.1-1.25-1.67-2.14-3.07-.9-1.39-1.54-2.62-.63-1.23-1.23-2.76-.59-1.52-.81-2.6-.22-1.07-.46-2.64-.24-1.57-.46-2.78-.22-1.21 1.6-1.57 1.81-.35 1.28.58-.54.93-1.16 2.43-.63 1.5-1.45 2.98-.83 1.47-1.47 2.37-.64.9-1.52 1.98-.88 1.08-1.85 2.3-.96 1.21-1.96 2.15-1 .94-1.26 1.13-.25.18-.55.3-.29.12-.6.17-.32.05-.62.02-.32-.03-.62-.14-.3-.1-.56-.28-.27-.17-.48-.4-.22-.23-.38-.51-.15-.28-.23-.58-.09-.31-.1-.63 0-.3.06-.61.07-.31.21-.6.14-.28.35-.53.2-.24.2-.24h0zm43.053-4.321q0 0 .37-.55.37-.56.8-1.54.44-.98 1.05-1.96.62-.99 1.14-2.19.52-1.2 1.09-2.3.58-1.09 1.29-2.05.7-.95 1.84-2.1 1.13-1.14 2.01-1.79.88-.64 3.39-.18 2.52.47 3.05 1.52.52 1.05.81 2.53.28 1.47.39 3.18.11 1.71.11 3.41 0 1.7.39 2.7.38 1.01 1.15 1.88.77.87 1.63 2.6.86 1.73-1.34 1.53-2.19-.2-1.63-1.16.57-.96 1.29-1.76.72-.78 1.39-1.76.66-.97 2.09-1.74 1.43-.76 2.86-.85 1.43-.09 2.73-.09 1.31 0 3.59-.06 2.28-.06 2.86-.1.57-.04 1.13.1.56.14 1.05.45.48.32.84.77.36.45.55 1 .2.54.21 1.12.01.57-.16 1.11-.18.55-.51 1.02-.34.47-.82.8-.47.33-1.02.5-.55.16-1.13.14-.57-.02-1.11-.22-.54-.2-.99-.57-.45-.36-.76-.85-.3-.49-.44-1.04-.13-.56-.08-1.13.05-.58.28-1.11.23-.52.62-.95.39-.43.89-.71.5-.28 1.07-.38.57-.11 1.14-.03.57.09 1.09.35.51.26.92.67.4.41.65.93.26.51.33 1.09.07.57-.04 1.13-.11.56-.4 1.06-.29.5-.72.88-.43.38-.96.61-.53.22-.53.22 0 0-2.37.17-2.36.16-3.77.17-1.41.02-2.82.45-1.4.43-2.75 1.79-1.34 1.37-2.64 2.46-1.3 1.09-3.83-.21-2.54-1.29-3-2.45-.45-1.16-1.15-2.09-.7-.93-1.22-2-.52-1.05-.93-2.87-.4-1.83-.43-3.45-.02-1.61-.15-3.19-.13-1.58.12-2.75.25-1.17 2.14-.65 1.9.53.98 1.13-.92.59-1.7 1.33-.77.73-1.48 1.63-.71.9-1.25 1.82-.54.92-1.48 2.48-.94 1.56-1.77 2.92-.83 1.36-1.26 1.87-.43.51-.65.74-.23.23-.5.4-.27.18-.57.28-.31.1-.63.13-.31.02-.63-.03-.32-.05-.61-.18-.3-.12-.55-.32-.26-.19-.47-.44-.2-.25-.34-.54-.14-.29-.2-.6-.06-.32-.05-.63.01-.32.1-.63.09-.31.25-.59.16-.28.16-.28h0zm57.267 3.919q0 0 .46-1.21.46-1.2.82-2.34.37-1.13.6-2.63.24-1.51.26-3.24.02-1.73.5-3.61.49-1.88 1-3.17.5-1.3 1.09-2.46.58-1.16 1.06-2.08.48-.92.73-1.25.25-.32.57-.57.32-.25.69-.42.37-.17.77-.25.41-.07.81-.05.41.03.8.14.39.12.74.33.35.21.64.5.29.29.5.64.21.34.34.73.12.39.14.8.03.41-.04.81-.07.4-.24.77-.16.37-.03-1.18.13-1.56.54-.35.41 1.22.96 2.81.56 1.6.74 3.01.18 1.42.17 2.53-.01 1.11-.18 2.38-.16 1.27-.32 2.47-.16 1.2-.33 2.81-.17 1.62-.2 3.36-.03 1.73.14 3.29.17 1.55.41 2.65.25 1.1.39 2.42.14 1.31.21 2.4.07 1.08.16 2.53.09 1.45-.65.5-.75-.95-.04-1.85.72-.9 1.68-2.05.96-1.15 2.34-2.92 1.39-1.77 2.26-2.76.87-.99 1.46-1.98.58-.98.56-2.25-.03-1.28.16-2.45.2-1.17.45-2.56.26-1.4 1.17-3 .92-1.61 2.13-2.21 1.2-.59 3.07-.65 1.86-.07 5.2 2.42 3.34 2.49 3.28 3.03-.05.54-.28 1.04-.22.5-.59.9-.38.4-.86.66-.48.26-1.01.35-.54.09-1.08.01-.54-.09-1.02-.34-.49-.25-.87-.64-.38-.39-.61-.89-.23-.49-.3-1.03-.06-.54.05-1.08.12-.53.39-1 .28-.47.69-.83.42-.36.92-.56.51-.21 1.05-.24.55-.04 1.07.11.53.14.98.44.46.3.79.73.34.43.51.95.18.52.19 1.06 0 .55-.17 1.07-.17.51-.49.95-.33.44-.78.75-.45.31-.97.46-.53.15-1.07.12-.55-.02-1.06-.22-.51-.2-.92-.55-.42-.35-.71-.81-.28-.47-.41-1-.12-.53-.12-.53 0 0 .87.65.87.64-.75.21-1.62-.43-1.88.78-.27 1.21-.5 3.29-.23 2.09-.67 3.66-.44 1.58-1.37 2.84-.93 1.27-1.69 2.23-.76.96-2.03 2.73-1.27 1.76-2 2.73-.74.96-1.65 1.75-.91.8-2.23 1.62-1.32.82-3.65 1.06-2.32.25-3.39-1.44-1.06-1.69-1.02-3.08.03-1.4-.04-3.39-.08-1.99-.31-3.23-.24-1.24-.56-3.02-.33-1.77-.58-3.75-.25-2-.32-3.84-.06-1.85.11-3.96.17-2.11 0-4.11-.17-1.99-.52-3.48-.34-1.48-.59-3.56-.25-2.07 0-2.4.25-.32.57-.57.32-.25.69-.42.37-.17.77-.25.4-.07.81-.05.41.02.8.14.39.12.74.33.35.21.64.5.29.29.5.64.21.34.34.73.12.39.14.8.03.41-.04.81-.07.4-.24.77-.16.37-.64 1.17-.49.8-1.24 2.16-.75 1.37-1.21 2.44-.45 1.07-.63 2.13-.17 1.05-.27 2.24-.1 1.18-.38 2.25-.28 1.06-.67 2.26-.38 1.19-.91 2.29-.52 1.1-.99 2.3-.48 1.18-.63 1.46-.14.28-.35.51-.21.23-.47.41-.26.17-.55.28-.3.11-.61.14-.3.04-.61 0-.31-.04-.6-.16-.29-.11-.55-.29-.25-.18-.46-.41-.2-.24-.34-.52-.15-.28-.22-.58-.07-.3-.07-.61 0-.31.08-.61.08-.31.08-.31v.01z" fill-opacity=".3"/></g><use xlink:href="#A" fill="#fff"/><use xlink:href="#A" fill="none" class="B C"/><path d="M145.956 43.022l3.92 5.94m-3.92-5.94l3.92 5.94m-.004-.268l12.83-12.96m-12.83 12.96l12.83-12.96" fill="none" class="B C"/><use xlink:href="#B" fill="#fff"/><use xlink:href="#B" fill="none" class="B C"/><path d="M268.611 38.558l2.95 4.47m-2.95-4.47l2.95 4.47m-.003-.203l9.65-9.75m-9.65 9.75l9.65-9.75" fill="none" class="B C"/></svg>