<svg xmlns="http://www.w3.org/2000/svg" width="359.212" height="157.663" xmlns:v="https://vecta.io/nano"><defs><style>@font-face{src:url("https://excalidraw.com/Virgil.woff2")} @font-face{src:url("https://excalidraw.com/Cascadia.woff2")}</style></defs><path fill="#fff" d="M0 0h359.212v157.663H0z"/><g stroke="#1e1e1e" fill="none" stroke-linecap="round"><path d="M28.547 10l269.14 5.77M28.547 10l269.14 5.77M32.257 62.757l264.61.82m-264.61-.82l264.61.82"/><path d="M28.547 10l4.12 53.58M28.547 10l4.12 53.58m263.788-48.634v50.28m0-50.28v50.28M102.737 11.649l3.71 51.11m-3.71-51.11l3.71 51.11m89.027-48.637l4.95 49.87m-4.95-49.87l4.95 49.87m53.99-49.458l.41 49.05m-.41-49.05l.41 49.05M71 51.217l-16.9 42.87M71 51.217l-16.9 42.87m-7.417-14.431l6.18 16.49m-6.18-16.49l6.18 16.49m.002-.003l22.26-11.13m-22.26 11.13l22.26-11.13"/><path d="M10 91.609l77.49 2.47M10 91.609l77.49 2.47m-.003.003l1.65 51.52m-1.65-51.52l1.65 51.52m-.413.412h-77.9m77.9 0h-77.9"/><path d="M10.412 145.19V90.78m0 54.41V90.78m94.386 5.775l.82 47.4m-.82-47.4l.82 47.4m.416-49.461l99.74 2.89m-99.74-2.89l99.74 2.89m.004-.005l-1.65 49.87m1.65-49.87l-1.65 49.87m-1.647-.41l-98.92-1.65m98.92 1.65l-98.92-1.65m117.468-49.871l.82 51.52m-.82-51.52l.82 51.52m.004.001h24.73m-24.73 0h24.73m0-.412l-2.06-50.28m2.06 50.28l-2.06-50.28"/><path d="M244.522 96.143l-24.73.41m24.73-.41l-24.73.41m39.568-.41l33.8.41m-33.8-.41l33.8.41m-75.429-82.431l2.47 48.64m-2.47-48.64l2.47 48.64m37.922 33.381l4.12 51.52m-4.12-51.52l4.12 51.52m.414-.824l35.45-1.65m-35.45 1.65l35.45-1.65"/><path d="M293.157 95.73l2.47 51.52m-2.47-51.52l2.47 51.52m9.895-52.756l43.69-.41m-43.69.41l43.69-.41m0-.002l-.41 53.17m.41-53.17l-.41 53.17m-.002-.001l-38.74-.41m38.74.41l-38.74-.41m-.828-1.651l-3.71-49.87m3.71 49.87l-3.71-49.87M160.234 55.132l5.77 46.99m-5.77-46.99l5.77 46.99m-15.25-12.78l15.66 13.19m-15.66-13.19l15.66 13.19"/><path d="M165.18 101.707l14.84-17.31m-14.84 17.31l14.84-17.31m31.735-24.731l22.26 37.09m-22.26-37.09l22.26 37.09m-14.017-8.239l14.84 10.72m-14.84-10.72l14.84 10.72m.41.821l-.82-15.66m.82 15.66l-.82-15.66m4.736-29.472l37.09 36.68m-37.09-36.68l37.09 36.68m.829-13.187l4.12 19.37m-4.12-19.37l4.12 19.37m-.411.002l-22.26-8.24m22.26 8.24l-22.26-8.24m23.085-34.625l39.98 32.56m-39.98-32.56l39.98 32.56m-13.189-3.296l18.14 7.83m-18.14-7.83l18.14 7.83m-.005.001l-6.18-21.43m6.18 21.43l-6.18-21.43"/></g><g fill="#1e1e1e"><path d="M32.11 37.161q0 0-.16-.83-.15-.83.02-2.55.18-1.73.86-3.18.69-1.46 1.28-2.58.6-1.11 1.7-2.76 1.11-1.66 2.23-2.69 1.11-1.02 2.67-1.47 1.56-.45 2.73-.74 1.17-.29 2.33-.2 1.15.09 2.42.86 1.27.77 1.82 2.09.54 1.32.52 2.65-.02 1.34-.42 2.89-.4 1.54-.42 3.25-.02 1.71-.05 3.44-.02 1.72-.01 2.97.02 1.26.73 3.02.72 1.75-.47 1.08-1.19-.68-2.37-.41-1.18.26-1.43-1.12-.25-1.39.03-2.61.27-1.22.72-3.06.46-1.86.88-3.39.41-1.53.83-2.54.42-1.01.84-2.32.41-1.32.9-2.54.49-1.22 1-1.89.52-.67.79-.98.27-.31.61-.55.34-.23.72-.38.38-.15.79-.2.41-.06.82-.01.41.05.79.19.39.15.73.38.34.23.61.54.28.3.47.66.19.37.29.77.1.39.11.81 0 .41-.1.81-.09.4-.28.76-.19.37.14-.9.34-1.26.65-.19.31 1.06.64 2.9.33 1.83.83 3.84.49 2.02 1.04 3.24.55 1.23 1.23 2.81.69 1.59 1.26 2.89.57 1.31 1.05 2.28.48.98-.72.85-1.2-.12-.25-2.17.94-2.05 1.4-3.01.46-.96 1.25-2.03.79-1.07 1.83-1.96 1.05-.89 2.08-1.4 1.02-.5 2.27-.58 1.25-.08 2.83.05 1.57.14 2.65.41 1.07.27 2.42.58 1.34.3 2.71.52 1.37.21 2.51.22 1.15 0 2.55.02 1.41.02 2.95.03 1.54.01 2.72-.01 1.19-.02 2.27-.05 1.08-.03 2.68.01 1.59.04 2.67.07 1.08.04 3.73.04 2.65 0 3.19.09.55.09 1.04.35.48.26.86.66.38.4.62.9.23.5.29 1.04.06.55-.06 1.09-.12.54-.41 1.01-.28.48-.7.83-.42.36-.94.57-.51.2-1.06.23-.55.03-1.08-.12-.54-.14-.99-.45-.46-.31-.79-.75-.34-.44-.51-.97-.18-.52-.18-1.07 0-.55.18-1.07.17-.52.51-.96.33-.44.79-.75.46-.31.99-.46.53-.15 1.08-.12.55.03 1.07.24.51.2.93.56.42.36.71.83.28.47.4 1.01.12.53.06 1.08-.06.55-.29 1.05-.24.5-.62.9-.38.41-.86.66-.49.26-1.04.35-.54.09-.54.09 0 0-2.65 0-2.65.01-3.73.04-1.08.03-3.17.06-2.09.03-3.41 0-1.32-.03-2.56-.03-1.25 0-2.92.02-1.67.02-2.78.01-1.11-.01-2.36-.04-1.24-.03-2.62-.29-1.37-.26-2.38-.68-1.01-.42-2.57-.81-1.56-.39-3.16-.18-1.6.2-2.37 1.21-.78 1.01-1.77 2.37-.99 1.35-2 2.83-1.01 1.47-2.03 2.16-1.01.68-2.11.52-1.09-.17-2.11-1.2-1.02-1.04-1.5-2.07-.47-1.04-1.03-2.23-.56-1.19-1.42-2.69-.86-1.49-1.72-3.05-.86-1.56-1.57-3.32-.71-1.76-.93-3.25-.22-1.48-.54-2.69-.32-1.22-.39-3.33-.07-2.11.2-2.42.27-.31.61-.55.33-.23.72-.38.38-.15.79-.2.41-.06.82-.01.41.05.79.19.39.15.73.38.34.23.61.53.28.31.47.67.19.37.29.77.1.39.11.81 0 .41-.1.81-.09.4-.28.76-.19.37-.54.66-.35.29-.92 1.69-.57 1.4-1.12 2.78-.56 1.38-.97 2.85-.41 1.47-.81 3.16-.41 1.67-.79 3.99-.39 2.32-.62 3.63-.24 1.31-1.1 2.08-.87.78-2.33 1.03-1.46.25-2.78-1.21-1.33-1.47-1.98-2.74-.65-1.27-.72-2.48-.07-1.2-.06-2.47.02-1.26.01-3.03-.01-1.77.05-3.5.05-1.72.22-2.78.17-1.06 1.06-1.71.9-.64-.25-.55-1.14.09-2.04.95-.9.87-1.58 1.85-.69.99-1.46 2.13-.76 1.15-1.24 2.13-.48.98-.4 1.81.08.82.09 1.14.01.31-.06.62-.07.31-.22.6-.14.29-.35.53-.2.24-.46.43-.26.19-.56.31-.3.12-.61.16-.32.05-.63.02-.32-.04-.62-.14-.3-.11-.57-.29-.26-.17-.48-.41-.22-.23-.37-.51-.16-.28-.24-.59-.08-.31-.08-.31h0z"/><path d="M105.917 34.3q0 0 .25-1.42.25-1.42.63-3.54.37-2.12.91-3.63.54-1.51.75-2.74.19-1.23.43-2.36.24-1.13.35-1.43.12-.3.21-.66.09-.36.26-.69.17-.33.42-.61.25-.28.56-.49.3-.21.65-.34.35-.14.72-.18.37-.05.74 0 .37.04.72.18.34.13.65.34.31.21.56.49.24.28.42.61.17.33.26.69.09.36.09.73 0 .38.27 1.55.26 1.17.17 3.09-.1 1.92-.28 4.13-.18 2.22-.32 4.34-.14 2.12-.12 3.6.03 1.49.33 2.98.31 1.48.83 3.1.51 1.61 1.11 3.36.61 1.75 1.59 2.7.99.95 1.57 1.75.59.8.72 1.14.14.35.19.71.04.37 0 .74-.04.36-.16.71-.13.35-.34.65-.21.31-.48.56-.27.24-.6.42-.32.17-.68.27-.36.09-.73.09-.37 0-.73-.08-.36-.09-.69-.25-.33-.17-.6-.41-.28-.25-.5-.55-.21-.3-.13-1.84.08-1.54-.07-2.69-.14-1.15-.16-2.51-.03-1.36-.05-2.63-.03-1.27.01-2.56.04-1.28.21-2.79.17-1.51.57-3.27.39-1.76.8-3.18.41-1.42.53-2.65.13-1.22.38-2.28.26-1.05 1.67-2.49 1.42-1.43 3.36-.27 1.94 1.15 2.74 2.58.8 1.43 1.41 3.35.61 1.91 1.07 3.03.47 1.11 1.34 2.16.86 1.05 1.61 2.3.74 1.26 1.24 3.29.5 2.03.76 3.6.25 1.56.55 3.04.31 1.47.98.19.67-1.28 1.68-1.7 1.01-.42 2.01-.9 1-.48 2.04-1.04 1.04-.55 2.36-1.64 1.32-1.1 2.2-2.87.88-1.77 1.47-3.17.59-1.41 1.22-2.26.62-.87 1.4-1.89.78-1.03 3.05-1.64 2.28-.61 3.29-.19 1.02.42 2.33 2.2 1.31 1.76 1.71 2.88.41 1.12.5 3.03.09 1.9.16 3.62.07 1.72-.91.91-.98-.8-2.1-1.12-1.11-.31-.54-1.5.57-1.19 1.55-2.41.98-1.21 2.16-1.68 1.18-.47 2.26-.5 1.08-.03 3.31.79 2.24.82 4.09 1.21 1.84.39 4.21.66 2.36.26 4.21.37 1.86.11 3.94.24 2.08.12 3.21.05 1.13-.06 2.27-.18 1.13-.12 2.75-.27 1.62-.14 2.8-.32 1.18-.18 2.49-.5 1.3-.31.63.68-.67.99-1.21-.91-.53-1.9-.53-3.06.01-1.15.01-2.23 0-1.09.01-2.26.02-1.18.33-2.86.3-1.68.55-3 .25-1.32.35-2.39.1-1.07-.01-1.33-.11-.26-.04-.6.07-.34.21-.66.15-.31.37-.58.22-.28.49-.49.28-.21.6-.35.31-.13.66-.19.34-.06.68-.03.35.02.68.13.33.11.63.29.29.18.53.43.24.25.42.55.18.3.28.63.09.33.11.68.02.35-.49 1.7-.51 1.35-1.06 2.83-.56 1.49-1.09 3.18-.53 1.69-.97 3.93-.44 2.24-.56 3.8-.13 1.57-.13 2.69 0 1.13.32 2.16.32 1.02 1.19 1.84.87.82 2.02 1.82 1.15 1 .31.03-.84-.98-.72-2.17.12-1.2.24-2.77.12-1.57.02-3.28-.09-1.71-.31-2.9-.21-1.21-.73-2.46-.51-1.25-.68-1.95-.16-.71-.18-1.04-.02-.34.04-.67.06-.33.2-.64.14-.31.35-.57.21-.27.48-.47.27-.21.57-.35.31-.13.64-.19.34-.06.67-.04.34.02.66.12.32.1.61.28.29.18.53.42.23.24.41.53.17.29.27.61.1.32.71 2.61.61 2.29 1.9 5.72 1.28 3.45 1.94 6.13.66 2.68 1.12 4.09.45 1.4-.62 1.37-1.08-.03-.88-1.29.2-1.27-.11-2.91-.32-1.64-.4-1.81-.09-.17-.13-.53-.04-.35 0-.71.05-.36.18-.69.12-.34.33-.64.2-.29.47-.53.28-.24.59-.41.32-.16.67-.25.35-.08.71-.08.36 0 .71.09.35.08.67.25.32.17.59.41.27.24.47.54.2.29.33.63.13.34-.77-.75-.9-1.08.62-.52 1.52.56 2.68.03 1.17-.53 3.15-.67 1.98-.15 3.16-.32 1.19-.17 1.59-.12.41.04.79.18.38.14.72.36.33.23.61.53.27.3.46.66.2.36.3.75.1.39.11.8 0 .41-.09.8-.09.4-.28.76-.18.36-.45.67-.26.31-.59.54-.33.24-.71.38-.38.15-.78.21-.4.05-1.74-.58-1.34-.64-3.06-1.75-1.72-1.11-2.2-2.56-.48-1.45-.56-3.55-.08-2.08-.09-3.89 0-1.82.16-3.18.17-1.37.52-2.71.35-1.34.76-2.51.41-1.16.72-2.35.32-1.2 1.88-2.85 1.56-1.66 2.97-1.55 1.4.11 2.66 1.23 1.27 1.12 1.9 2.89.63 1.77.9 4.13.28 2.37.32 5.17.05 2.81-.01 5.04-.05 2.22-.33 4.35-.28 2.14-.49 3.94-.22 1.81-.51 3.2-.28 1.39-.36 2.29-.07.91-.15 1.18-.09.26-.23.5-.14.23-.33.43-.2.19-.43.34-.24.14-.5.22-.27.09-.54.1-.28.02-.55-.03-.27-.05-.52-.16-.25-.11-.47-.28-.22-.17-.39-.39-.17-.21-.29-.46-.11-.26-.16-.53-.05-.27-.03-.54.01-.28.61-1.52.61-1.25 1.1-3.32.49-2.08.7-3.22.22-1.14.4-2.19.19-1.06.23-2.22.04-1.16.11-1.49.08-.31.24-.61.15-.29.37-.55.22-.25.49-.44.28-.19.59-.31.31-.12.64-.16.33-.04.66-.01.34.04.65.16.31.12.59.3.27.19.5.44.22.25.38.54.15.3.24.61.08.33.08.66 0 .33 1.31 2.86 1.31 2.52 1.69 3.62.38 1.11.78 2.44.39 1.34 2.47.48 2.08-.86 3.58-2.19 1.51-1.33 2.52-2.46 1.02-1.12 1.65-1.95.63-.83.86-1.03.23-.2.5-.33.27-.14.57-.21.3-.07.6-.07.31.01.6.08.29.08.56.22.27.15.5.35.22.21.39.46.17.25.28.54.1.28.13.59.04.3 0 .6-.04.3-.16.59-.11.28-.28.53-.18.25.23-.74.41-.99 1.78-1.02 1.36-.04 2.95-.47 1.59-.43 1.05-2.33-.55-1.88-.45-4.07.1-2.19.12-3.94.01-1.74-.03-2.96-.05-1.21-.08-1.37-.03-.15.01-.45.03-.3.13-.58.1-.28.27-.53.17-.25.39-.45.22-.2.49-.35.26-.14.55-.21.29-.08.59-.08.3-.01.59.06.29.07.56.21.27.13.5.33.22.2.39.44.18.25.29.52.11.28.15.58.04.3.2 2.4.16 2.1.58 4.71.43 2.61.93 5.54.5 2.94.81 5.92.31 2.97.77 4.81.47 1.84.93 3.06.47 1.22.49 1.46.03.23 0 .47-.04.24-.12.46-.09.22-.23.41-.14.2-.32.35-.18.16-.39.27-.21.1-.45.16-.23.05-.47.05-.23-.01-.46-.07-.24-.06-.44-.17-.21-.11-.39-.27-.18-.16-.31-.36-.13-.2-.21-.42-.08-.23-.11-1.33-.02-1.1-.01-2.71.01-1.62.15-3.45.15-1.83.53-3.95.38-2.11.55-3.31.17-1.2 1-2.69.84-1.5 2.78-.95 1.95.55 3.04 1.83 1.08 1.29 3.18 2.41 2.11 1.12 4.33 1.66 2.22.55 4.24.83 2.01.29 3.31.31 1.3.03 1.86-1.66.56-1.69 2.85-1.85 2.29-.16 4.64.23 2.34.39 3.73.49 1.38.1 3.54.37 2.16.28 2.55.44.38.17.69.45.32.29.52.65.21.37.29.78.07.42.01.83-.05.42-.24.79-.19.38-.49.68-.3.29-.67.48-.38.18-.8.24-.41.06-.83-.03-.41-.08-.77-.28-.37-.21-.65-.53-.28-.31-.44-.7-.17-.38-.2-.8-.03-.42.07-.83.1-.41.33-.76.23-.35.55-.62.33-.26.73-.4.39-.15.81-.16.42-.01.83.12.4.12.74.37.34.25.58.59.25.34.37.74.12.41.11.83-.01.42-.16.81-.15.39-.41.72-.27.33-.62.55-.36.23-.77.33-.4.1-.82.06-.42-.03-.42-.03 0 0-1.69-.28-1.68-.28-3.27-.37-1.59-.09-3.23-.3-1.64-.2-2.82-.76-1.19-.55-1.94.54-.75 1.1-2.03 1.55-1.28.46-2.74.29-1.45-.17-3.68-.33-2.22-.17-4.97-.69-2.74-.51-5.63-1.89-2.89-1.39-3.07-2.89-.17-1.5-.48-.48-.31 1.03-.51 3.03-.2 1.99-.31 3.7-.11 1.71-.24 3.96-.12 2.25-.1 2.49.03.23 0 .47-.04.24-.12.46-.09.22-.23.41-.14.2-.32.35-.18.16-.39.27-.21.1-.45.16-.23.05-.47.05-.23-.01-.46-.07-.24-.06-.44-.17-.21-.11-.39-.27-.18-.16-.31-.36-.13-.2-.21-.42-.08-.23-.24-1.46-.16-1.24-.72-3.28-.56-2.05-1-4.87-.44-2.82-1.14-5.7-.7-2.88-1.42-5.62-.73-2.74-1.03-5.12-.31-2.37-.27-2.67.03-.3.13-.58.1-.28.27-.53.17-.25.39-.45.22-.2.49-.35.26-.14.55-.21.29-.08.59-.08.3-.01.59.06.29.07.56.21.27.13.49.33.23.2.4.44.18.25.29.52.11.28.15.58.04.3.02.45-.01.16-.03 1.36-.02 1.2.06 2.89.08 1.7.34 3.71.25 2.01.59 4.15.33 2.15-.03 4.22-.37 2.08-1.5 2.98-1.14.9-2.63 1.26-1.49.35-2.7.49-1.21.14-2.61.1-1.39-.04-2.88-.19-1.5-.14-2.42-.86-.91-.71-1.17-2.3-.25-1.59.16-2.79.4-1.21.63-1.41.23-.19.5-.33.27-.14.57-.21.3-.07.6-.07.31.01.6.08.29.08.56.22.27.15.5.35.22.21.39.46.17.25.28.54.1.28.13.59.04.3 0 .6-.04.3-.16.59-.11.28-.28.53-.18.25-.91.95-.73.7-1.8 1.92-1.07 1.23-2.79 3.21-1.72 1.97-3.12 2.92-1.4.94-2.73 1.59-1.34.65-2.7.7-1.37.04-2.89-1.19-1.53-1.24-1.98-2.35-.45-1.11-.84-2.39-.38-1.28-.73-2.41-.34-1.13-1.22-3.25-.88-2.12-1.61-3.62-.73-1.5-.66-1.83.08-.31.24-.61.15-.29.37-.54.22-.26.49-.45.28-.19.59-.31.31-.12.64-.16.33-.04.66-.01.34.04.65.16.31.12.59.3.27.19.5.44.22.25.38.54.15.3.24.61.08.33.08.66 0 .33-.23 1.71-.22 1.37-.47 2.43-.26 1.07-.52 2.13-.26 1.07-.59 2.76-.33 1.7-1.29 3.27-.96 1.56-1.04 1.83-.09.26-.23.5-.14.23-.33.43-.2.19-.43.34-.24.14-.5.22-.27.09-.54.1-.28.02-.55-.03-.27-.05-.52-.16-.25-.11-.47-.28-.22-.17-.39-.39-.17-.21-.29-.46-.11-.26-.16-.53-.05-.27-.03-.54.01-.28.33-1.31.31-1.03.68-2.11.36-1.09.55-2.87.19-1.78.31-3.63.12-1.86-.1-3.98-.23-2.12-.59-4.54-.36-2.42-1.06-5.22-.7-2.8.54-2.88 1.24-.08.66 1.68-.59 1.77-.88 3.66-.29 1.88-.26 3.64.02 1.75.25 3.73.23 2 .63 2.05.41.04.79.18.38.14.72.36.33.23.61.53.27.3.46.66.2.36.3.75.1.39.11.8 0 .4-.09.8-.09.4-.28.76-.18.36-.45.67-.26.31-.59.54-.33.24-.71.38-.38.15-.78.21-.4.05-.38.1.03.05-1.13.11-1.15.05-2.71.2-1.56.14-2.59.52-1.03.38-2.21.26-1.17-.12-2.62-.75-1.45-.63-3-1.8-1.56-1.18-1.6-1.54-.04-.35 0-.71.05-.36.18-.69.12-.34.33-.64.2-.29.47-.53.27-.24.59-.41.32-.16.67-.25.35-.08.71-.08.36 0 .71.09.35.08.67.25.32.17.59.41.27.24.47.54.2.29.33.63.13.34.33 1.21.2.88.25 2.38.06 1.5-.22 2.86-.28 1.35-.64 2.42-.36 1.06-1.89 2.41-1.54 1.35-3.29-.37-1.75-1.71-2.15-3.15-.41-1.44-1.22-3.79-.82-2.35-2.45-5.71-1.63-3.36-2.51-6.15-.87-2.8-.89-3.13-.02-.34.04-.67.06-.33.2-.64.14-.31.35-.57.21-.27.48-.47.27-.21.57-.35.31-.13.64-.19.34-.06.67-.04.34.02.66.12.32.1.61.28.29.18.53.42.23.24.41.53.17.29.27.61.1.32.17 1.21.07.89.42 2.02.34 1.14.55 2.48.2 1.34.54 3.4.34 2.07.37 3.8.02 1.73-.08 3.28-.11 1.55-.43 3.12-.33 1.58-2.1 3.19-1.77 1.6-3.52.96-1.76-.64-3.12-2.03-1.36-1.38-2.1-2.29-.74-.91-1.28-1.95-.55-1.05-.74-2.81-.18-1.77-.07-2.97.12-1.2.25-2.87.14-1.66.33-4.24.19-2.59.58-4.45.38-1.87 1.14-4.12.75-2.24.82-2.58.07-.34.21-.66.15-.31.37-.58.21-.28.49-.49.28-.21.6-.34.31-.14.66-.2.34-.06.68-.03.35.02.68.13.33.11.63.29.29.18.53.43.24.25.42.55.18.3.28.63.09.33.11.68.02.35.07.46.05.11-.04 1.59-.08 1.47-.27 2.8-.19 1.33-.36 2.54-.16 1.21-.15 2.37.02 1.16.03 2.23.01 1.07.03 2.17.03 1.12.04 2.48.01 1.36-.12 2.6-.14 1.23-1.54 2.53-1.4 1.29-2.68 1.46-1.28.17-2.85.23-1.58.06-3.21-.09-1.62-.15-2.77-.28-1.14-.13-2.27-.21-1.13-.08-3.25 0-2.12.09-4.02.11-1.9.02-4.46.07-2.56.05-5.06-.05-2.5-.11-3.89-.89-1.4-.79-2.04.36-.65 1.14-1.35 2.3-.7 1.15-2 1.85-1.3.7-2.51.48-1.21-.22-2.2-1.81-1-1.6-1.05-3.19-.06-1.59-.25-3.06-.19-1.48-.63-2.72-.44-1.25.91-1.11 1.34.13.39 1.25-.96 1.11-1.54 2.01-.57.91-1.14 1.82-.57.92-1.31 2.5-.74 1.59-2.02 2.82-1.28 1.23-2.4 2.11-1.11.88-2.23 1.54-1.11.66-2.87 1.52-1.77.85-3.59 1.75-1.83.89-3.45 1.21-1.62.32-2.95-.37-1.34-.7-2.08-2.29-.74-1.59-.96-2.91-.22-1.32-.42-2.91-.2-1.59-.36-2.81-.17-1.22-.94-2.74-.78-1.51-1.5-2.56-.72-1.05-1.26-2.3-.54-1.23-1.17-2.65-.64-1.42-.71-2.54-.07-1.11 1.39-2.08 1.47-.97 1.1.47-.38 1.44-.58 2.49-.21 1.04-.52 2.2-.31 1.16-.49 2.7-.18 1.53-.25 2.78-.06 1.25-.02 2.54.04 1.28.01 2.57-.03 1.28-.07 2.67-.04 1.38-.06 2.47-.01 1.08-.23 2.46-.23 1.38-.3.11-.08-1.26.05-.92.14.35.19.71.04.37 0 .74-.04.36-.16.71-.13.35-.34.65-.21.31-.48.56-.27.24-.6.42-.32.17-.68.27-.36.09-.73.09-.37 0-.73-.08-.36-.09-.69-.25-.33-.17-.6-.41-.28-.25-.5-.55-.21-.3-.67-.98-.46-.67-1.22-1.8-.76-1.14-1.26-2.81-.5-1.67-.66-3.26-.16-1.59-.38-2.64-.23-1.05-.63-2.97-.41-1.91-.39-3.41.02-1.49-.13-3.6-.16-2.11-.36-4.29-.21-2.18-.37-4.5-.16-2.31-.39-3.51-.23-1.2-.14-1.56.09-.36.26-.69.17-.33.42-.61.25-.28.56-.49.3-.21.65-.34.35-.14.72-.18.37-.05.74 0 .37.04.72.18.34.13.65.34.31.21.56.49.24.28.42.61.17.33.26.69.09.36.09.73 0 .38-.22.91-.22.53-.54 1.56-.32 1.03-.55 2.23-.22 1.2-.8 2.62-.58 1.43-1.07 2.43-.5 1-.64 2.16-.14 1.16-.36 2.58-.22 1.42-.31 1.72-.09.31-.25.58-.16.28-.38.5-.22.23-.49.4-.27.17-.57.27-.3.1-.62.12-.3.03-.61-.03-.32-.05-.61-.17-.29-.13-.54-.32-.26-.19-.46-.44-.2-.25-.33-.53-.14-.29-.2-.6-.06-.31-.05-.62.02-.32.02-.32h0zm-92.148 90.034q0 0 .03.53.03.53-.19 1.01-.22.48-.64.81-.41.33-.94.43-.51.09-1.02-.07-.5-.15-.88-.53-.38-.38-.53-.88-.16-.51-.07-1.02.1-.53.43-.94.33-.42.81-.64.49-.22 1.01-.19.53.04.98.31.46.28.73.73l.28.45z"/><path d="M8.786 121.129q0 0 .47-1.18.47-1.19.9-2.23.44-1.04 1.11-2.48.67-1.45 1.38-2.84.71-1.38.93-2.53.22-1.15.83-2.24.62-1.08 2.21-2.14 1.59-1.06 3.03-.56 1.45.51 2.13 1.95.69 1.44.82 2.96.13 1.52.16 3.08.03 1.55.15 2.78.11 1.24.17 2.48.07 1.24.09 2.49.02 1.25.06 3.14.05 1.91.1 3.19.05 1.29.06 2.46.02 1.17.67-.61.66-1.79 1.9-3.08 1.25-1.28 1.96-2.53.72-1.25 1.46-2.6.73-1.36 1.36-3.04.63-1.67.96-3.49.32-1.82.77-3 .44-1.18.7-2.31.26-1.12.9-2.4.65-1.28 2.17-2.1 1.53-.82 2.75-.52 1.23.31 2.17 1.53.95 1.22 1.31 2.84.36 1.62.57 3.5.21 1.88.36 3.23.15 1.35.23 2.43.08 1.08.18 2.44.09 1.37.14 2.56.05 1.2.11 2.48.05 1.28.1 2.43.06 1.15.22 2.26.16 1.11.11 1.51-.05.41-.2.79-.14.38-.37.72-.23.33-.54.6-.31.28-.67.47-.36.18-.76.28-.39.1-.8.1-.41 0-.81-.1-.39-.1-.76-.29-.36-.19-.66-.46-.31-.27-.54-.6-.23-.34-.38-.72-.14-.38-.19-.79-.05-.41.18-1.49.22-1.09.97-2.87.75-1.78 1.82-3.58 1.06-1.78 2.36-3.07 1.3-1.29 2.46-1.92 1.15-.62 2.87-.8 1.71-.17 3.03-.57 1.32-.4 3.2-.79 1.87-.38 2.98-.45 1.12-.07 3.17.53 2.05.6 3.21.93 1.15.32 2.59.41 1.43.09 2.85.18 1.42.1 2.75.15 1.33.06 2.72.11 1.39.06 2.46.06 1.06.01 2.67-.01 1.62-.02 2.11.06.49.08.93.32.45.23.79.59.34.37.55.82.21.45.27.95.05.5-.06.99-.11.48-.36.9-.26.43-.64.75-.38.33-.85.51-.46.19-.96.21-.5.03-.98-.1-.48-.14-.9-.42-.41-.28-.71-.68-.3-.4-.46-.86-.16-.47-.16-.97 0-.5.16-.98.16-.47.46-.87.3-.4.72-.68.41-.28.89-.41.48-.13.98-.11.5.03.97.22.46.18.84.51.38.32.64.75.26.43.36.92.11.48.06.98-.06.5-.27.94-.21.45-.55.82-.35.36-.79.59-.44.24-.93.32-.5.08-.5.08 0 0-1.61-.02-1.61-.02-2.68-.02-1.07 0-2.47.05-1.4.05-2.74.1-1.34.04-2.85.11-1.5.07-3.55-.04-2.05-.12-3.74-.58-1.69-.45-2.72-.87-1.02-.41-2.48-.19-1.45.21-2.68.48-1.23.28-2.49.6-1.25.32-2.73.72-1.47.4-2.24 1.65-.77 1.26-1.48 2.95-.71 1.68-.76 2.09-.05.41-.2.79-.14.38-.37.72-.23.33-.54.6-.31.27-.67.46-.36.19-.76.29-.39.1-.8.1-.41 0-.81-.1-.39-.1-.76-.28-.36-.19-.66-.47-.31-.27-.54-.6-.23-.34-.38-.72-.14-.38-.19-.79-.05-.4-.15-.8-.1-.4-.06-1.57.05-1.17.1-2.24.04-1.08.1-2.39.06-1.32.09-2.64.03-1.33-.01-2.89-.04-1.56-.18-2.71-.15-1.14-.49-3.76-.34-2.62 1.07-2.83 1.41-.22 1 .8-.42 1.02-.97 2.32-.55 1.3-.94 2.89-.39 1.59-1.07 2.91-.69 1.31-1.1 2.43-.41 1.13-1.08 2.53-.67 1.42-1.58 3.35-.92 1.92-1.85 3.11-.92 1.18-1.75 2.47-.82 1.28-1.58 2.38-.77 1.1-2 1.86-1.23.76-3.81-.2-2.58-.95-3.09-1.9-.52-.94-.9-2.05-.37-1.11-.35-2.43.02-1.33.06-2.6.04-1.28.05-3.13.01-1.85-.02-3-.04-1.15-.1-2.22-.06-1.06-.25-2.47-.2-1.41-.32-2.72-.13-1.32 0-2.89.13-1.57 2.1-1.33 1.97.24 1.13 1.83-.85 1.59-1.6 3.04-.75 1.45-1.41 2.49-.66 1.03-1.43 2.57-.77 1.53-1.25 2.71-.48 1.18-.63 1.46-.16.28-.37.51-.22.24-.48.41-.27.18-.57.29-.3.1-.62.14-.3.03-.62-.01-.31-.05-.61-.17-.3-.12-.56-.3-.25-.19-.46-.43-.21-.24-.35-.53-.15-.28-.22-.59-.07-.31-.06-.62.01-.32.09-.63.08-.31.08-.31h0zm98.176-2.503q0 0 .78-1.63.78-1.63 1.32-2.84.52-1.22 1.07-2.8.56-1.59.86-3.21.29-1.62.7-2.77.4-1.14.58-1.46.18-.31.37-.62.19-.31.45-.57.25-.26.56-.45.32-.18.66-.29.35-.11.71-.13.37-.03.72.04.36.06.69.21.34.15.62.38.29.22.52.51.22.28.37.61.15.34.22.69.06.36.04.72-.02.37-.13.72-.11.34-.18-1-.08-1.34.27.82.35 2.16.35 3.34-.01 1.17-.02 2.39-.01 1.21-.02 2.43-.02 1.23.01 3 .03 1.77.25 2.94.22 1.17.59 2.58.38 1.42.64 2.75.26 1.33.58 2.81.31 1.48.42 2.63.11 1.16.14 2.23.03 1.07.07 2.2.05 1.14-.72.14-.76-1.01-.53-2.5.23-1.48.39-3.23.16-1.74.18-3.2.03-1.47.03-3.09 0-1.61.31-3.14.31-1.52 1.54-3.58 1.24-2.05 1.87-3.28.63-1.24 1.25-2.65.62-1.41 1.4-2.64.78-1.23 1.54-2.19.76-.95 2.28-1.98 1.53-1.03 3.04-.4 1.51.62 2.1 2.39.58 1.77 1.05 3.49.47 1.71.81 2.99.33 1.28.58 2.33.25 1.06 1.18 2.13.93 1.07 2.17 2.38 1.24 1.31 2.6 1.86 1.35.56 2.35.96 1.01.41 1.8 1.22.79.82-1.09 1.08-1.87.26-1.07-1.89.79-2.14 1.85-3.85 1.05-1.71 2.48-2.55 1.43-.84 2.98-.78 1.55.06 2.84.79 1.3.72 2.7 1.25 1.4.52 3.42 1.38 2.03.86 3.17 1.25 1.13.39 2.04 1.13.92.75 1.75 1.88.84 1.12 1.42.17.58-.95 1.95-1.96 1.36-1.02 2.75-1.93 1.38-.92 2.89-1.27 1.51-.34 3.82.44 2.31.79 3.67 1.71 1.36.94 2.8 1 1.43.07 2.87.05 1.44-.02 2.96-.04 1.51-.01 2.61-.11 1.1-.1 2.84-.34 1.74-.23 3.33-.5 1.59-.25 2.14-.23.56.03 1.08.22.51.2.94.56.43.35.72.83.29.47.41 1.01.13.55.07 1.1-.05.55-.28 1.06-.23.51-.61.91-.38.41-.86.67-.49.27-1.04.36-.55.1-1.1.01-.55-.08-1.04-.34-.5-.25-.88-.65-.39-.4-.63-.91-.23-.5-.3-1.05-.06-.55.05-1.1.12-.54.4-1.02.28-.48.7-.84.42-.37.94-.58.51-.2 1.07-.23.55-.04 1.09.1.53.14 1 .45.46.31.8.75.34.44.52.96.19.53.19 1.08.01.56-.17 1.09-.17.53-.5.97-.34.45-.79.76-.46.32-.99.47-.54.16-.54.16 0 0-1.69.25-1.69.26-3.23.5-1.55.24-3.14.38-1.6.14-3.12.12-1.53-.02-3.05-.05-1.52-.04-2.77-.13-1.24-.09-3.01-.61-1.78-.53-3.28-1.86-1.5-1.33-2.84-.9-1.34.43-2.56 1.67-1.23 1.23-2.21 2.08-.99.85-2.37 1.61-1.38.75-2.57.83-1.18.08-2.97-1-1.78-1.08-2.78-2.43-.99-1.35-2.03-1.71-1.04-.37-2.01-.88-.97-.5-2.36-.85-1.38-.34-2.33-1.75-.95-1.41-1.8.04-.85 1.46-1.55 3-.7 1.55-1.3 2.74-.59 1.18-1.85 1.86-1.26.68-2.84-.39-1.57-1.07-2.6-1.4-1.02-.34-1.97-.89-.96-.56-2.67-1.77-1.71-1.21-3.06-2.63-1.36-1.41-2.02-2.3-.66-.87-1.35-2.71-.69-1.84-1.06-3.33-.38-1.48-.75-2.97-.38-1.49-.14-2.87.25-1.38 2.26-.83 2.02.55 1.17 1.37-.85.81-1.74 1.87-.9 1.05-1.62 2.39-.72 1.33-1.35 2.72-.64 1.4-1.43 3.65-.8 2.24-.81 3.91-.02 1.66-.09 3.25-.06 1.58-.11 3.04-.05 1.46-.76 3.85-.72 2.38-1.47 3.75-.75 1.36-1.75 2.15-1 .79-2.32 1.1-1.33.31-2.59-.1-1.26-.42-2.2-2.19-.95-1.77-.94-2.88.01-1.11-.08-2.74-.08-1.64-.42-3.36-.33-1.72-.53-2.98-.19-1.26-.44-2.4-.24-1.15-.5-3.12-.26-1.95-.23-3.73.03-1.77.01-2.99-.01-1.22-.03-2.42-.02-1.2.21-2.9.23-1.69-.02-3.24-.25-1.56-.06-1.87.19-.31.45-.57.25-.26.56-.45.31-.18.66-.29.35-.11.71-.13.37-.03.72.04.36.06.69.21.34.15.62.38.29.22.51.51.23.28.38.61.15.33.22.69.06.36.04.72-.02.37-.13.72-.11.34-.33.64-.23.3-.74 1.36-.52 1.06-1.3 3.1-.78 2.04-1.2 3.1-.43 1.06-.97 2.2-.55 1.14-1.19 2.83-.64 1.68-.79 1.95-.16.27-.38.5-.21.22-.48.39-.26.17-.56.26-.29.1-.6.13-.3.02-.61-.03-.31-.05-.6-.17-.28-.13-.53-.31-.25-.19-.45-.43-.2-.25-.33-.53-.13-.28-.19-.59-.06-.3-.05-.6.01-.32.1-.62.09-.29.09-.29h0zm116.168 8.02q0 0-.9-1.56-.9-1.57-1.52-2.8-.62-1.23-1.25-2.46-.63-1.22-.7-3.42-.07-2.19 1.03-4.01 1.09-1.81 2.1-3.31 1-1.49 1.45-2.54.44-1.05.76-1.99.32-.93.46-1.21.15-.29.36-.53.2-.24.45-.42.27-.19.56-.3.3-.12.62-.16.31-.04.63-.01.32.04.61.15.3.11.57.28.26.18.48.42.21.24.36.52.15.28.23.59.08.3.09.62 0 .32-.07.63-.08.31-.12 2.22-.05 1.91-.12 3.22-.07 1.31-.16 2.94-.08 1.63-.19 3.51-.11 1.89-.25 4.11-.14 2.22-.12 3.76.02 1.53.32 2.6.31 1.06.61 2.6.31 1.53.05 3.37-.27 1.83-.33 1.91-.07.08-.24.37-.18.28-.41.52-.24.24-.53.42-.28.17-.6.27-.32.1-.66.12-.33.03-.66-.03-.33-.06-.64-.2-.3-.14-.56-.34-.27-.21-.48-.47-.2-.27-.34-.57-.14-.31-.2-.64-.06-.33-.04-.66.01-.34.11-.66.1-.32-.27-1.4-.36-1.09-.38-2.47-.01-1.38.24-3.47.26-2.08 1.08-5 .8-2.92 1.42-5.23.62-2.3.76-3.42.14-1.12.53-2.05.4-.94.54-1.18.14-.24.34-.44.2-.2.43-.34.24-.15.51-.23.26-.09.54-.11.28-.02.55.03.28.05.53.16.26.12.48.29.22.17.39.39.18.22.29.47.12.25.17.53.05.27.04.55-.02.28-.1.54-.08.27.27 2.35.35 2.08.27 4.33-.09 2.24-.16 5.56-.07 3.32-.13 6.98-.06 3.66.01 6.6.07 2.95.23 3.97.16 1.03.14 1.24-.01.22-.08.42-.07.21-.19.39-.11.18-.27.33-.15.15-.34.26-.19.11-.39.17-.21.06-.43.07-.21.01-.43-.03-.21-.05-.4-.14-.2-.09-.37-.23-.16-.14-.29-.31-.13-.17-.22-.37-.08-.2-.12-.41-.03-.22-.3-2.1-.27-1.87-.48-3.78-.2-1.9-.5-3.59-.29-1.69.01-3.99.31-2.29 1.16-3.59.85-1.32 1.94-2.72 1.09-1.4 2.02-2.61.93-1.21 1.68-2.04.74-.82 2.58-.65 1.83.17 2.59 1.58.75 1.41.85 3.34.11 1.94-1.37 1.91-1.48-.04-.34-.89 1.14-.86 2.72-.89 1.59-.04 3.47-.05 1.88-.01 2.39.07.51.08.96.32.46.25.82.62.35.38.57.84.21.47.27.99.05.5-.06 1-.11.51-.37.95-.27.44-.66.77-.4.34-.88.53-.48.19-.99.22-.52.03-1.01-.11-.5-.14-.93-.43-.42-.29-.74-.7-.31-.41-.47-.9-.17-.49-.17-1 0-.51.17-1 .16-.49.47-.9.32-.41.74-.7.43-.29.93-.43.5-.14 1.01-.11.52.03 1 .22.48.19.87.53.39.33.66.77.26.45.37.95.12.5.06 1.01-.06.51-.27.98-.22.47-.58.84-.35.38-.81.62-.45.24-.96.32-.51.08-.51.08 0 0-2.9-.26-2.9-.26-3.99.24-1.09.5-2.29.24-1.21-.27-2-1.75-.79-1.47-.74-3.02.04-1.56.4-2.64.37-1.08 1.27-.43.91.65.01 1.82-.89 1.16-2.48 3.4-1.59 2.25-1.95 3.48-.35 1.24-.38 2.82-.04 1.59.19 3.36.23 1.77.37 3.94.13 2.16.11 2.37-.01.22-.08.42-.07.21-.19.39-.11.18-.27.33-.15.15-.34.26-.19.11-.39.17-.21.06-.43.07-.21.01-.43-.03-.21-.05-.4-.14-.2-.09-.37-.23-.16-.14-.29-.31-.13-.17-.22-.37-.08-.2-.12-.41-.03-.22.02-1.25.06-1.03-.11-4.04-.17-3.01-.24-6.66-.08-3.66-.18-6.94-.11-3.3-.27-5.48-.15-2.17-.27-3.77-.11-1.6-.24-3.12-.12-1.52.02-1.76.14-.24.34-.44.2-.2.43-.34.24-.15.51-.23.26-.09.54-.11.28-.02.55.03.28.05.53.16.26.12.48.29.22.17.39.39.18.21.29.47.12.25.17.53.05.27.04.55-.02.28-.1.54-.08.27-.52.68-.44.42-.74 1.54-.29 1.12-.69 3.51-.39 2.39-.85 4.95-.46 2.56-.42 4.44.05 1.89.1 4.04.06 2.16.14 3.67.07 1.5-.1 1.79-.18.28-.41.52-.24.24-.53.42-.28.17-.6.27-.32.1-.66.12-.33.03-.66-.03-.33-.06-.64-.2-.3-.14-.56-.34-.27-.21-.48-.47-.2-.27-.34-.57-.14-.31-.2-.64-.06-.33-.04-.66.01-.34.11-.66.1-.32.37-.39.27-.06.31-1.53.03-1.47-.13-3.32-.17-1.85-.15-3.38.03-1.54-.1-3.77-.13-2.23-.22-4.14-.08-1.91-.11-3.62-.03-1.72.02-3.26.06-1.55.6-2.95.55-1.39.24-2.46-.3-1.06-.16-1.34.15-.29.36-.53.2-.24.45-.42.26-.19.56-.3.3-.12.61-.16.32-.04.64-.01.31.04.61.15.3.11.57.28.26.18.48.42.21.23.36.52.15.28.23.59.08.3.09.62 0 .32-.07.63-.08.31-.63 1.36-.56 1.04-1.17 2.31-.61 1.26-1.53 2.99-.92 1.72-1.68 3.45-.78 1.74-.44 2.79.35 1.05.77 2.08.41 1.03 1.41 2.54.99 1.51 1.11 1.77.12.26.18.54.05.28.04.56-.02.29-.1.56-.09.27-.23.52-.15.25-.35.45-.2.21-.45.36-.24.15-.51.24-.28.08-.56.1-.28.02-.56-.03-.29-.05-.55-.16-.26-.12-.49-.29-.23-.18-.4-.4-.18-.23-.18-.23h0z"/><path d="M256.88 125.132q0 0-.26-1.05-.27-1.06-.77-2.63-.49-1.57-.64-2.71-.16-1.15-.2-2.47-.04-1.32-.05-2.59-.01-1.27.24-2.6.25-1.34.8-2.56.56-1.22 1.81-2.67 1.25-1.45 2.73-2.58 1.5-1.14 2.38-2.39.88-1.26 1.58-2.15.7-.88 1.83-1.37 1.13-.49 2.67-.18 1.55.31 2.93 1.4 1.38 1.08 2.4 2.43 1.01 1.34 1.78 3.31.76 1.97 1.13 3.33.37 1.36.8 3.38.44 2.03.51 3.1.07 1.07-.02 2.28-.09 1.21-.4 2.54-.32 1.34-1.09 3.29-.77 1.95-1.61 3.46-.84 1.52-2.44 2.98-1.59 1.46-2.68 1.48-1.09.02-2.12-.79-1.04-.81-2.32-2.49-1.28-1.69-1.83-3.36-.55-1.69-.5-3.75.04-2.06.57-3.38.52-1.32 2.6-2.34 2.07-1.02 3.59-.41 1.52.6 2.56 2.16 1.05 1.56 1.45 3.44.39 1.89.5 3.38.1 1.49-.26 3.11-.36 1.62-.92 2.98-.56 1.36-.52 2.16.04.8-.08 1.13-.13.34-.33.64-.2.29-.46.53-.27.24-.59.41-.31.17-.66.26-.35.08-.71.09-.35 0-.7-.08-.35-.09-.67-.25-.32-.17-.59-.4-.27-.24-.47-.53-.21-.29-.34-.63-.13-.33-.17-.69-.05-.35-.01-.71.04-.35 1.42-2.52 1.37-2.16 2.71-3.82 1.34-1.67 2.12-2.76.78-1.08 1.56-1.93.78-.85 2.97-1.69 2.18-.83 3.53-.89 1.34-.07 2.97-.04 1.63.03 2.78 0 1.16-.02 2.75.08 1.59.1 2.88.57 1.3.47 2.28 1.11.97.65 1.98 1.43 1.01.79 1.74 2.49.74 1.71.3 2.8-.44 1.11-1.42 1.63-.97.52-2.87.57-1.91.05-3.95.07-2.04.02-2.55-.06-.51-.08-.97-.32-.45-.24-.81-.62-.35-.37-.57-.84-.22-.47-.28-.98-.05-.5.06-1.01.11-.5.37-.94.27-.44.66-.78.39-.33.87-.53.48-.19 1-.22.51-.02 1.01.11.49.14.92.43.43.29.74.7.31.41.48.9.17.48.17 1 0 .51-.17.99-.16.49-.47.9-.31.42-.74.71-.43.29-.92.42-.5.14-1.01.12-.52-.03-1-.22-.48-.19-.87-.52-.4-.34-.66-.78-.27-.44-.38-.94-.11-.51-.06-1.01.06-.51.27-.98.22-.47.57-.85.36-.37.81-.61.46-.24.97-.33.51-.08.51-.08 0 0 2.02.01 2.03.01 3.01.44.98.44.81 2.26-.18 1.82-1.09.92-.92-.9-1.77-1.57-.84-.67-2.13-.9-1.29-.22-2.43-.23-1.14-.01-2.69.07-1.55.07-2.66.11-1.1.04-2.4.5-1.3.46-2.03 1.41-.73.94-1.82 2.93-1.09 1.99-1.89 3.15-.81 1.17-.93 1.5-.13.34-.33.64-.2.29-.46.53-.27.24-.59.41-.31.17-.66.26-.35.08-.71.09-.35 0-.7-.08-.35-.09-.67-.25-.32-.16-.59-.4-.27-.24-.47-.53-.21-.29-.34-.63-.13-.33-.17-.69-.05-.35-.01-.71.04-.35.15.29.12.65.16-1.19.05-1.84.71-3.54.67-1.7.4-3.72-.26-2.03-.9-3.13-.64-1.09.86-1.37 1.5-.29 1.13.76-.37 1.05-.33 2.22.04 1.16.35 2.47.32 1.3.92.26.61-1.05 1.03-2.91.42-1.86.77-3.6.35-1.73.29-3.32-.05-1.59-.49-3.54-.44-1.96-1.06-3.27-.62-1.31-1.53-3.05-.92-1.74-1.83-.67-.92 1.06-1.79 2-.87.94-1.9 1.78-1.04.85-1.83 1.82-.79.98-1.35 2.21-.56 1.24-.54 2.44.01 1.19.08 3.06.06 1.87.43 3.56.36 1.69.57 2.76.21 1.07.24 1.38.03.29-.02.6-.04.3-.16.58-.11.29-.29.54-.18.24-.42.44-.23.2-.5.34-.28.13-.58.2-.3.06-.59.06-.31-.01-.61-.09-.29-.08-.56-.23-.27-.15-.49-.36-.23-.2-.39-.46-.17-.26-.27-.54-.11-.29-.11-.29h0zm52.525 3.802q0 0-.16-1.18-.16-1.18-.2-2.83-.04-1.65-.05-3.29 0-1.64.49-3.93.5-2.29.77-4 .28-1.72.45-2.97.18-1.26.21-2.37.04-1.11.3-2.42.26-1.31.45-2.44.18-1.14.52-2.46.34-1.32.92-2.37.58-1.06 1.89-1.81 1.31-.74 3.3-.39 1.98.36 3.67 1.95 1.69 1.59 2.62 3.69.93 2.1 1.37 4.1.45 2.01.68 3.6.22 1.6.35 2.9.13 1.31-.2 2.81-.32 1.5-.74 3.05-.43 1.56-.74 2.72-.3 1.17-.69 2.61-.39 1.45-1.58.86-1.19-.59-.1-1.68 1.1-1.09 2.73-2.98 1.62-1.88 2.95-3.46 1.33-1.57 1.87-2.67.54-1.09 3.03-1.53 2.49-.44 3.21 1.04.71 1.47 1.21 2.51.5 1.04 2.54 1.52 2.05.49 3.62.59 1.57.11 4.23 1.32 2.67 1.21 2.84 1.6.18.39.23.82.04.42-.05.84-.1.42-.32.79-.22.36-.55.64-.32.27-.72.43-.4.16-.83.18-.43.02-.84-.1-.41-.11-.76-.35-.36-.25-.62-.59-.25-.34-.39-.75-.13-.4-.13-.83 0-.43.14-.83.14-.41.4-.75.26-.34.61-.58.36-.24.77-.35.41-.11.84-.09.43.03.83.19.39.16.72.44.32.28.54.64.22.37.31.79.09.42.05.84-.05.43-.23.82-.19.38-.48.69-.3.31-.68.51-.38.2-.8.27-.42.07-.84 0-.43-.08-.8-.28-.38-.2-.67-.51-.3-.31-.3-.31 0 0-.55-.1-.55-.1-2.22-.11-1.66 0-3.94-.09-2.29-.09-4.05-1.39-1.75-1.3-2.43-2.73-.69-1.43-.93-3.19-.24-1.76 1.14-1.33 1.37.43.62 1.72-.74 1.29-1.89 3.09-1.15 1.81-3.11 4.52-1.96 2.72-3.51 3.87-1.55 1.14-2.93 1.4-1.39.25-2.73-.6-1.34-.85-1.43-2.64-.09-1.79.45-3.38.54-1.58 1.33-3.48.78-1.9 1.4-3.41.62-1.51.58-2.64-.03-1.12-.18-2.47-.15-1.35-.58-2.93-.44-1.58-1.03-2.88-.59-1.31-1.95-2.52-1.36-1.2-1.69-.09-.34 1.11-.92 3.26-.58 2.15-.74 3.48-.17 1.34-.45 2.5-.29 1.16-.55 2.9-.25 1.73-.45 3.66-.2 1.93-.16 3.52.04 1.59.1 3.08.06 1.49.14 2.68.07 1.18.07 1.45-.01.28-.08.55-.07.27-.21.52-.13.24-.32.45-.19.2-.43.36-.23.15-.49.25-.27.09-.55.12-.26.03-.54-.01-.28-.04-.54-.15-.26-.1-.48-.27-.23-.16-.41-.37-.18-.22-.31-.47-.12-.25-.18-.52-.06-.27-.06-.27h0z"/></g></svg>